<?xml version="1.0" encoding="UTF-8"?>
<!-- Generator: Adobe Illustrator 26.0.3, SVG Export Plug-In . SVG Version: 6.00 Build 0)  -->
<svg version="1.1" id="Calque_1" xmlns:shaper="http://www.shapertools.com/namespaces/shaper" xmlns="http://www.w3.org/2000/svg" xmlns:xlink="http://www.w3.org/1999/xlink" x="0px" y="0px" viewBox="0 0 273.5 377" style="enable-background:new 0 0 273.5 377;" xml:space="preserve">
<path vector-effect="non-scaling-stroke" shaper:cutDepth="0" shaper:pathType="guide" class="st0" d="M240.7,200  c41.4,38.2,44,102.8,5.8,144.2c-19.3,20.9-46.5,32.8-75,32.8H15.6C7,377,0,370,0,361.4l0,0V78c0-8.6,7-15.6,15.6-15.6  s15.6,7,15.6,15.6v252.3c0,8.6,7,15.6,15.6,15.6h124.7c39.1,0,70.9-31.7,70.9-70.9c0-39.1-31.7-70.9-70.9-70.9l0,0h-31.2  c-8.6,0-15.6-7-15.6-15.6s7-15.6,15.6-15.6h31.2c39.1,0,70.9-31.7,70.9-70.9s-31.7-70.9-70.9-70.9h-62.4c-8.6,0-15.6,7-15.6,15.6  l0,0V299c0,8.6-7,15.6-15.6,15.6s-15.6-7-15.6-15.6V15.6C62.4,7,69.3,0,78,0l0,0h93.5c56.4,0,102,45.7,102,102  c0,28.5-11.9,55.7-32.8,75c-6.3,5.8-6.7,15.7-0.9,22C240.1,199.4,240.4,199.7,240.7,200z"/>
</svg>