<?xml version="1.0" encoding="utf-8"?>
<!-- Generator: Adobe Illustrator 26.0.3, SVG Export Plug-In . SVG Version: 6.00 Build 0)  -->
<svg version="1.1" id="Calque_1" xmlns="http://www.w3.org/2000/svg" xmlns:xlink="http://www.w3.org/1999/xlink" x="0px" y="0px"
	 viewBox="0 0 52.3 36" style="enable-background:new 0 0 52.3 36;" xml:space="preserve">
<g id="line">
	<path class="st0" d="M19.8,11.3c3.7,0.7,7.6,1.1,11.4,1.1c2.2,0,4.2-0.1,6.2-0.3l2.3,19.3"/>
	<path class="st0" d="M25.2,2.7c-7.3,0.7-12.5,2.5-12.5,4.7l-2.5,23c-0.1,0.9,0.3,1.8,1.1,2.3c2.1,1.4,7.6,3.6,20,3.3
		c11.9-0.3,17.4-2.1,19.7-3.3c0.9-0.5,1.5-1.4,1.3-2.5L49.8,7.4c0-2.2-5-4-12.1-4.7"/>
	<path class="st0" d="M37.6,2.7c4,0.5,6.7,1.5,6.7,2.7c0,1.7-5.7,3-12.7,3s-12.7-1.3-12.7-3c0-1.1,2.5-2.1,6.3-2.6"/>
	<path class="st0" d="M25.5,5.1V3.6c0-2,1.6-3.6,3.6-3.6h5c2,0,3.6,1.6,3.6,3.6v1.8"/>
	<path class="st0" d="M10.8,24.5L4.3,13c-0.3-0.6-0.7-1.2-1.1-1.8L0.1,8.5C0,8.4,0,8.3,0.1,8.2l0.1-0.1l4.2-0.6l7.7,5.7"/>
</g>
</svg>
