<?xml version="1.0" encoding="utf-8"?>
<!-- Generator: Adobe Illustrator 26.0.3, SVG Export Plug-In . SVG Version: 6.00 Build 0)  -->
<svg version="1.1" id="Calque_1" xmlns="http://www.w3.org/2000/svg" xmlns:xlink="http://www.w3.org/1999/xlink" x="0px" y="0px"
	 viewBox="0 0 46 53.5" style="enable-background:new 0 0 46 53.5;" xml:space="preserve">
<g id="line">
	<path class="st0" d="M15.9,31.3c2.4-0.7,11.9,0.5,14.1,2.1"/>
	<path class="st0" d="M9.4,9.3c1.3-0.9,2.8-1.3,4.4-1.1c1.6,0,3.1,0.6,4.2,1.7"/>
	<path class="st0" d="M38.1,13.3c-2.7-0.7-5.5-0.8-8.2-0.3"/>
	<path class="st0" d="M29,45.2C41.3,41.9,48.5,29.3,45.2,17S29.3-2.5,17,0.8C7,3.5,0,12.6,0,23c0,4.6,1.4,9.2,4,13"/>
	<path class="st0" d="M18,17.5c0,1.7-1.3,3-3,3s-3-1.3-3-3s1.3-3,3-3S18,15.8,18,17.5"/>
	<path class="st0" d="M35,20.5c0,1.7-1.3,3-3,3s-3-1.3-3-3s1.3-3,3-3S35,18.8,35,20.5"/>
	<path class="st0" d="M6.7,43.5c-1,1.6-1.2,3.7-0.5,5.5c1.1,3.3,4,5.2,7.2,4.2l4.9-1.4l1-0.3c0.8-0.2,1.3-1.1,1.1-1.8l0,0
		c-0.2-0.5-0.6-0.9-1.2-1l1.2-0.3c0.8-0.2,1.3-1.1,1.1-1.8c-0.2-0.5-0.6-1-1.2-1.1l1.2-0.4c0.8-0.2,1.3-1.1,1.1-1.8
		c-0.1-0.5-0.5-0.9-1-1l6.4-1.9c0.8-0.2,1.3-1.1,1.1-1.8s-1.1-1.3-1.8-1.1l0,0l-10.2,3L12,42l0.6-7.8c0.1-0.9-1.5-1.2-2.1,0.2
		L6.7,43.5z"/>
</g>
</svg>
